<svg width="40" height="40" viewBox="0 0 40 40" fill="none" xmlns="http://www.w3.org/2000/svg">
<path d="M28.8167 6.90013L28.7 13.2168C28.6833 14.0835 29.2334 15.2335 29.9334 15.7501L34.0667 18.8835C36.7167 20.8835 36.2834 23.3335 33.1167 24.3335L27.7334 26.0168C26.8334 26.3001 25.8834 27.2835 25.6501 28.2001L24.3667 33.1001C23.35 36.9668 20.8167 37.3501 18.7167 33.9501L15.7833 29.2001C15.25 28.3335 13.9833 27.6835 12.9833 27.7335L7.41672 28.0168C3.43339 28.2168 2.30004 25.9168 4.90004 22.8835L8.20001 19.0501C8.81667 18.3335 9.1 17.0001 8.81667 16.1001L7.13342 10.7168C6.15008 7.55012 7.91673 5.80014 11.0667 6.83348L15.9834 8.45015C16.8167 8.71681 18.0667 8.53346 18.7667 8.0168L23.9001 4.3168C26.6667 2.31679 28.8833 3.48347 28.8167 6.90013Z" fill="#EA6B00"/>
<path opacity="0.4" d="M35.7333 34.1166L30.6832 29.0666C30.1999 28.5833 29.3999 28.5833 28.9166 29.0666C28.4332 29.5499 28.4332 30.3499 28.9166 30.8333L33.9666 35.8833C34.2166 36.1333 34.5332 36.2499 34.8499 36.2499C35.1666 36.2499 35.4833 36.1333 35.7333 35.8833C36.2166 35.3999 36.2166 34.5999 35.7333 34.1166Z" fill="#EA6B00"/>
</svg>
