<svg width="81" height="80" viewBox="0 0 81 80" fill="none" xmlns="http://www.w3.org/2000/svg">
<rect x="0.5" width="80" height="80" rx="40" fill="#EA6B00"/>
<path d="M40.5 56.5001C49.7047 56.5001 57.1667 49.0382 57.1667 39.8334C57.1667 30.6287 49.7047 23.1667 40.5 23.1667C31.2953 23.1667 23.8333 30.6287 23.8333 39.8334C23.8333 49.0382 31.2953 56.5001 40.5 56.5001Z" fill="white"/>
<path d="M44.2667 40L41.75 39.1167V33.4667H42.35C43.7 33.4667 44.8 34.65 44.8 36.1C44.8 36.7833 45.3667 37.35 46.05 37.35C46.7333 37.35 47.3 36.7833 47.3 36.1C47.3 33.2667 45.0833 30.9667 42.35 30.9667H41.75V30C41.75 29.3167 41.1833 28.75 40.5 28.75C39.8167 28.75 39.25 29.3167 39.25 30V30.9667H38.1667C35.7 30.9667 33.6833 33.05 33.6833 35.6C33.6833 38.5833 35.4167 39.5333 36.7333 40L39.25 40.8833V46.5167H38.65C37.3 46.5167 36.2 45.3333 36.2 43.8833C36.2 43.2 35.6333 42.6333 34.95 42.6333C34.2667 42.6333 33.7 43.2 33.7 43.8833C33.7 46.7167 35.9167 49.0167 38.65 49.0167H39.25V50C39.25 50.6833 39.8167 51.25 40.5 51.25C41.1833 51.25 41.75 50.6833 41.75 50V49.0333H42.8333C45.3 49.0333 47.3167 46.95 47.3167 44.4C47.3 41.4 45.5667 40.45 44.2667 40ZM37.5667 37.65C36.7167 37.35 36.2 37.0667 36.2 35.6167C36.2 34.4333 37.0833 33.4833 38.1833 33.4833H39.2667V38.25L37.5667 37.65ZM42.8333 46.5333H41.75V41.7667L43.4333 42.35C44.2833 42.65 44.8 42.9333 44.8 44.3833C44.8 45.5667 43.9167 46.5333 42.8333 46.5333Z" fill="#EA6B00"/>
</svg>
