<svg width="80" height="80" viewBox="0 0 80 80" fill="none" xmlns="http://www.w3.org/2000/svg">
<rect width="80" height="80" rx="40" fill="#EA6B00"/>
<path d="M56.6666 41.0333V44.4666C56.6666 45.3999 55.9 46.1666 54.95 46.1666H51.7333C49.9333 46.1666 48.2833 44.8499 48.1333 43.0499C48.0333 41.9999 48.4333 41.0166 49.1333 40.3333C49.75 39.6999 50.6 39.3333 51.5333 39.3333H54.95C55.9 39.3333 56.6666 40.0999 56.6666 41.0333Z" fill="white"/>
<path d="M45.6333 43.2667C45.4833 41.5167 46.1166 39.8 47.3833 38.55C48.45 37.4667 49.9333 36.8333 51.5333 36.8333H52.4833C52.95 36.8333 53.3333 36.45 53.2666 35.9833C52.8166 32.75 50.0166 30.25 46.6666 30.25H30C26.3166 30.25 23.3333 33.2333 23.3333 36.9167V48.5833C23.3333 52.2667 26.3166 55.25 30 55.25H46.6666C50.0333 55.25 52.8166 52.75 53.2666 49.5167C53.3333 49.05 52.95 48.6667 52.4833 48.6667H51.7333C48.5666 48.6667 45.9 46.3 45.6333 43.2667ZM41.6666 39.8333H31.6666C30.9833 39.8333 30.4166 39.2833 30.4166 38.5833C30.4166 37.8833 30.9833 37.3333 31.6666 37.3333H41.6666C42.35 37.3333 42.9166 37.9 42.9166 38.5833C42.9166 39.2667 42.35 39.8333 41.6666 39.8333Z" fill="white"/>
<path d="M43.6833 26.6333C44.1167 27.0833 43.7333 27.75 43.1 27.75H30.05C28.2333 27.75 26.5333 28.2833 25.1167 29.2C24.4667 29.6167 23.5833 29.1667 23.9 28.45C24.8333 26.2667 27.0167 24.75 29.5333 24.75H38.9C40.8333 24.75 42.55 25.4333 43.6833 26.6333Z" fill="white"/>
</svg>
