<svg width="81" height="80" viewBox="0 0 81 80" fill="none" xmlns="http://www.w3.org/2000/svg">
<rect x="0.5" width="80" height="80" rx="40" fill="#EA6B00"/>
<path d="M45.1283 24.085C46.5418 24.8466 47.6069 26.1243 48.1017 27.6517L48.96 30.8334H39.25L38.92 30.8417H38.8967C37.3025 30.932 35.8033 31.629 34.7068 32.7896C33.6103 33.9503 32.9996 35.4867 33 37.0834V49.5834L33.0083 49.9134V49.9367C33.0333 50.3534 33.0967 50.755 33.1967 51.145C32.2021 51.1254 31.2267 50.8682 30.3517 50.395C28.9376 49.6338 27.8718 48.3561 27.3767 46.8284L24.05 34.4384C23.6331 32.8971 23.824 31.2546 24.5833 29.85C25.3446 28.4359 26.6223 27.3702 28.15 26.875L40.54 23.5467C42.0812 23.1313 43.723 23.3234 45.1267 24.0834L45.1283 24.085ZM39.2617 32.5L38.9783 32.5084C37.8119 32.5776 36.716 33.0898 35.9145 33.9402C35.1131 34.7905 34.6667 35.9149 34.6667 37.0834V49.5717L34.675 49.855C34.7443 51.0215 35.2564 52.1174 36.1068 52.9189C36.9572 53.7203 38.0815 54.1666 39.25 54.1667H40.0533C38.9101 51.9722 38.5526 49.4524 39.0402 47.0265C39.5279 44.6005 40.8313 42.4146 42.7338 40.8324C44.6363 39.2501 47.0231 38.3668 49.4973 38.3294C51.9715 38.292 54.3839 39.1027 56.3333 40.6267V37.095L56.325 36.8117C56.2558 35.6453 55.7436 34.5493 54.8932 33.7479C54.0429 32.9465 52.9185 32.5001 51.75 32.5H39.2617ZM58.8333 49.1667C58.8333 46.7356 57.8676 44.404 56.1485 42.6849C54.4294 40.9658 52.0978 40 49.6667 40C47.2355 40 44.9039 40.9658 43.1849 42.6849C41.4658 44.404 40.5 46.7356 40.5 49.1667C40.5 51.5979 41.4658 53.9294 43.1849 55.6485C44.9039 57.3676 47.2355 58.3334 49.6667 58.3334C52.0978 58.3334 54.4294 57.3676 56.1485 55.6485C57.8676 53.9294 58.8333 51.5979 58.8333 49.1667ZM49.5167 43.345L49.6667 43.3334L49.8167 43.3467C49.9832 43.3771 50.1365 43.4575 50.2562 43.5772C50.3759 43.6969 50.4563 43.8502 50.4867 44.0167L50.5 44.1667V48.3334L54.675 48.335L54.825 48.3484C54.9915 48.3788 55.1448 48.4592 55.2645 48.5789C55.3842 48.6986 55.4646 48.8519 55.495 49.0184L55.5083 49.1684L55.495 49.3184C55.4645 49.4851 55.3838 49.6386 55.2638 49.7583C55.1438 49.878 54.9902 49.9583 54.8233 49.9884L54.6733 50.0017H50.5017V54.1734L50.4883 54.3234C50.4579 54.4899 50.3775 54.6432 50.2578 54.7629C50.1381 54.8826 49.9848 54.963 49.8183 54.9934L49.6683 55.0067L49.5183 54.9934C49.3518 54.963 49.1985 54.8826 49.0789 54.7629C48.9592 54.6432 48.8788 54.4899 48.8483 54.3234L48.835 54.1734V50H44.6633L44.5133 49.9867C44.3468 49.9563 44.1935 49.8759 44.0739 49.7562C43.9542 49.6365 43.8738 49.4832 43.8433 49.3167L43.83 49.1667L43.8433 49.0167C43.8738 48.8502 43.9542 48.6969 44.0739 48.5772C44.1935 48.4575 44.3468 48.3771 44.5133 48.3467L44.6633 48.3334H48.8333V44.1667L48.8467 44.0167C48.8768 43.8499 48.9571 43.6962 49.0768 43.5762C49.1965 43.4562 49.3499 43.3756 49.5167 43.345Z" fill="white"/>
</svg>
