<svg width="53" height="44" viewBox="0 0 53 44" fill="none" xmlns="http://www.w3.org/2000/svg">
<path d="M47.3547 11.3253C47.3893 11.792 47.3893 12.256 47.3893 12.72C47.3893 26.92 36.5813 43.2827 16.8293 43.2827C10.744 43.2827 5.09067 41.52 0.333336 38.4587C1.19734 38.5574 2.02934 38.592 2.928 38.592C7.76265 38.6037 12.4604 36.9871 16.264 34.0027C14.0225 33.9621 11.8495 33.2226 10.0486 31.8873C8.24774 30.5521 6.90876 28.6877 6.21867 26.5547C6.88267 26.6533 7.54934 26.72 8.248 26.72C9.21067 26.72 10.1787 26.5867 11.0773 26.3547C8.6447 25.8635 6.45727 24.5449 4.88699 22.6232C3.31671 20.7014 2.46052 18.2951 2.464 15.8133V15.68C3.896 16.4773 5.55734 16.976 7.31734 17.0427C5.84291 16.0629 4.63392 14.7334 3.79824 13.1728C2.96256 11.6122 2.52617 9.86896 2.528 8.09868C2.528 6.10401 3.05867 4.27468 3.98934 2.68001C6.68837 6.00007 10.0547 8.71618 13.8702 10.6524C17.6858 12.5887 21.8655 13.7019 26.1387 13.92C25.9733 13.12 25.872 12.2907 25.872 11.4587C25.8713 10.0479 26.1487 8.65084 26.6882 7.34732C27.2278 6.04381 28.0189 4.85941 29.0165 3.86185C30.0141 2.86428 31.1985 2.07311 32.502 1.53356C33.8055 0.994001 35.2026 0.716647 36.6133 0.717348C39.7067 0.717348 42.4987 2.01335 44.4613 4.10935C46.8661 3.64433 49.1721 2.76647 51.2773 1.51468C50.4758 3.99686 48.7967 6.10162 46.5547 7.43468C48.6874 7.19142 50.7718 6.63055 52.7387 5.77068C51.2697 7.91228 49.4494 9.79027 47.3547 11.3253Z" fill="#3F3F3F"/>
</svg>
